<svg width="24" height="24" viewBox="0 0 24 24" fill="none" xmlns="http://www.w3.org/2000/svg">
<g clip-path="url(#clip0_102_791)">
<path d="M11.649 0.00791766C5.19069 0.200953 -6.10352e-05 5.48432 -6.10352e-05 11.9884C-6.10352e-05 18.6174 5.37257 23.9889 11.9938 23.9889C14.1886 23.9889 20.1481 23.0695 22.9555 16.8735C21.7515 17.3633 20.436 17.6344 19.058 17.6344C13.3395 17.6344 8.71888 13.9288 8.71107 8.2125C8.70549 5.27457 9.59368 2.9113 10.9539 1.1684C11.2295 0.813576 11.6836 0.317044 11.9938 0.000153841C11.977 0.00126965 11.6657 0.00791766 11.649 0.00791766Z" fill="url(#paint0_linear_102_791)"/>
<mask id="mask0_102_791" style="mask-type:luminance" maskUnits="userSpaceOnUse" x="1" y="0" width="23" height="24">
<path d="M1.04437 3.35051e-05H23.9999V24H1.04437V3.35051e-05Z" fill="white"/>
</mask>
<g mask="url(#mask0_102_791)">
<path d="M13.0706 1.16828C14.8693 3.56951 15.2866 5.86469 15.2866 8.22239C15.2866 13.9387 10.6537 17.6454 4.93966 17.6454C3.56164 17.6454 2.24944 17.3732 1.04437 16.8844C3.90531 23.2579 9.80571 24 12.0005 24C18.6262 24 23.9999 18.6273 23.9999 11.9994C23.9999 5.49313 18.8081 0.209755 12.3475 0.0167202C12.3308 0.0167202 12.0128 0.00115058 11.9938 3.4767e-05C12.3051 0.316925 12.8017 0.805647 13.0706 1.16828Z" fill="url(#paint1_linear_102_791)"/>
<path d="M10.7576 1.43404C9.49881 3.17374 8.6987 5.4435 8.70986 8.16967C8.72102 11.1625 9.99873 13.6588 12.0085 15.3081C14.006 13.6588 15.3283 11.2105 15.2893 8.22323C15.2636 5.98695 15.0538 3.89574 13.1255 1.23876C12.8186 0.81471 12.2819 0.265683 12.0018 0.00121249C11.9694 0.00121249 11.2486 0.753336 10.7576 1.43404Z" fill="white"/>
</g>
</g>
<defs>
<linearGradient id="paint0_linear_102_791" x1="-0.0446931" y1="0.877181" x2="14.9261" y2="18.9243" gradientUnits="userSpaceOnUse">
<stop stop-color="#EF3B23"/>
<stop offset="1" stop-color="#8B131E"/>
</linearGradient>
<linearGradient id="paint1_linear_102_791" x1="0.134983" y1="11.9994" x2="20.2352" y2="11.9994" gradientUnits="userSpaceOnUse">
<stop stop-color="#B7212F"/>
<stop offset="1" stop-color="#EF3B23"/>
</linearGradient>
<clipPath id="clip0_102_791">
<rect width="24" height="24" fill="white"/>
</clipPath>
</defs>
</svg>
