<svg width="24" height="24" viewBox="0 0 24 24" fill="none" xmlns="http://www.w3.org/2000/svg">
<path fill-rule="evenodd" clip-rule="evenodd" d="M18.7634 5.45547C18.6452 6.11138 18.6452 6.11138 18.5591 6.53074C18.3441 7.12214 18.0645 7.59525 17.7097 8.11138C17.6882 8.12214 17.6774 8.13289 17.6559 8.14364C16.6667 9.27267 15.4839 9.9716 14.0645 10.4662C13.7849 10.5307 13.7849 10.5307 13.7527 10.5522V10.6168C13.8495 10.7135 14.0323 10.692 14.1505 10.692C14.2581 10.7243 14.2581 10.7243 14.4301 10.735C14.9462 10.8963 15.4409 11.0899 15.914 11.3694C15.9462 11.4125 16.172 11.5737 16.5376 11.8963C16.6452 12.0254 16.7527 12.1544 16.8602 12.2834C17.086 12.606 17.2473 12.9824 17.3871 13.3587C17.4301 13.5522 17.4731 13.7458 17.5161 13.9393C17.5376 14.1544 17.5376 14.1544 17.5376 14.7135C17.4946 14.9824 17.4409 15.2512 17.3978 15.52C17.3226 15.6813 17.3011 15.7996 17.172 16.1221C16.8925 16.6813 16.5806 17.1974 16.172 17.6705C15.6774 18.1867 15.1398 18.6383 14.5699 19.0684C14.4731 19.1114 14.3226 19.1651 14.2581 19.2512C13.3763 19.7458 12.5054 20.0791 11.5484 20.4125C10.957 20.5307 10.3763 20.649 9.77419 20.7243C8.67742 20.7888 8.67742 20.7888 8.36559 20.8211C7.39785 20.8533 3.66667 21.0361 3.60215 21.0254C3.54839 20.9716 3.55914 20.8318 3.60215 20.778C4.60215 20.4877 5.62366 20.1544 6.63441 19.9071C6.72043 19.8748 8.41935 19.3802 8.5914 19.3157C9.35484 19.1544 10.1075 18.8641 10.8602 18.6598C11.0323 18.5953 11.9355 18.3479 12.7742 18.1006C13.5161 17.9286 14.3011 17.692 15.0215 17.4447C15.0538 17.4017 15.0538 17.3587 15.0538 17.3049C15.0323 17.2942 15.0108 17.2727 15 17.2619C14.9355 17.2619 13.9677 17.5092 9.45161 18.606C9.43011 18.6168 9.4086 18.6275 9.39785 18.6383C8.56989 18.7996 7.74193 19.0361 6.91398 19.2297C6.84946 19.2512 6.78495 19.2727 6.73118 19.2942C3.60215 20.0361 3.60215 20.0361 3.52688 20.0684H3.44086C3.37634 19.9823 3.33333 19.9716 3.35484 19.8533C3.5914 19.7028 3.5914 19.7028 4.17204 19.3694C4.32258 19.3049 5.75269 18.4877 5.89247 18.4232C7.03226 17.7458 8.21505 17.1114 9.35484 16.4447C10.3118 15.9178 11.2796 15.3694 12.2366 14.8426C12.2688 14.8211 12.3011 14.7996 12.3333 14.7673C13.0645 14.391 13.7742 13.9716 14.4946 13.5737C14.828 13.434 15.1828 13.2189 15.4839 13.0146C15.5376 12.9393 15.4946 12.8426 15.4086 12.8318C14.7097 13.1867 14.0215 13.5522 13.3333 13.9071C13.2258 13.9393 13.2258 13.9393 13.1183 14.0146C11.1398 15.0254 11.1398 15.0254 10.9785 15.0899C10.7527 15.2297 10.1613 15.52 10.1075 15.563C9.24731 15.9931 8.3871 16.4447 7.53763 16.9071C7.50538 16.9178 7.48387 16.9178 7.46237 16.9286C7 17.2404 6.44086 17.4447 5.96774 17.735C5.13979 18.1436 4.30107 18.5737 3.48387 19.0039C3.3871 19.0254 2.76344 19.4662 2.82796 19.0361C3.11828 18.7673 3.4086 18.4877 3.69892 18.2189C3.78495 18.1221 4.01075 17.9178 4.04301 17.9071C4.35484 17.563 4.70968 17.1651 5.09677 16.9071C5.11828 16.8748 5.15054 16.8426 5.17204 16.7996C5.92473 16.1006 6.68817 15.391 7.4086 14.649C9.56989 12.5845 11.7419 10.52 13.914 8.48773C13.9785 8.40171 14.043 8.31568 14.1398 8.26192C15.4624 6.9931 15.5484 6.89633 17.1183 5.40171C17.2258 5.32644 17.2258 5.32644 17.2581 5.26192C17.2581 5.00386 17.1075 5.12214 16.9677 5.22966C16.5806 5.61676 16.1613 5.96085 15.7634 6.33719C15.6129 6.55224 15.3441 6.70278 15.172 6.90708C14.7957 7.25117 14.3548 7.71353 13.9247 8.01461C13.6129 8.32644 13.2581 8.64902 12.914 8.91784C11.6774 10.1114 10.3118 11.1867 9.08602 12.391C8.48387 12.8641 7.95699 13.477 7.34408 13.9393C7.18279 14.1221 7.18279 14.1221 6.08602 15.1329C6.04301 15.1651 6.01075 15.1867 5.96774 15.2082C4.74194 16.3372 3.49462 17.4447 2.24731 18.5522C2.10753 18.5522 2.07527 18.52 2.08602 18.3802C3.58064 16.2082 5.07527 14.0254 6.54839 11.8426C7.15054 10.9393 7.74193 10.0146 8.37634 9.13289C8.82796 8.46622 8.86021 8.40171 9.0215 8.18665C10.172 6.47698 11.3763 4.75655 12.5054 3.02536C12.6452 2.88558 12.6021 2.79956 12.4194 2.82106C11.4624 4.16515 10.4731 5.48773 9.52688 6.85332C9.36559 7.05762 9.06452 7.50923 5.86022 11.9931C5.78495 12.1114 4.63441 13.6813 4.55914 13.778C3.52688 15.2189 2.49462 16.6813 1.44086 18.1006C1.3871 18.1436 1.33333 18.1867 1.25806 18.1436V18.0146C2.01075 16.0576 2.80645 14.0899 3.62366 12.1651C4.8172 9.16515 6.01075 6.14364 7.22581 3.14364C7.22581 3.07913 7.22581 3.07913 7.18279 3.02536C7.13978 3.02536 7.09677 3.03612 7.06452 3.06837C6.13978 5.14364 5.1828 7.21891 4.24731 9.29418C4.2043 9.34794 3.22581 11.5307 2.94624 12.0899C2.82796 12.3802 2.73118 12.563 2.60215 12.8641C1.80645 14.5415 1.04301 16.2512 0.279569 17.9501C0.182795 17.9931 0.0967742 18.0039 0 17.9608C0.0107527 17.8426 0.0107517 17.8426 0.387096 16.4555C0.419354 16.3802 0.526881 15.9608 0.559139 15.8748C0.591398 15.7243 0.623656 15.649 0.989247 14.2082C1.1828 13.4877 1.37634 12.7673 1.58064 12.0576C1.6129 11.9071 3.44086 5.29418 3.46237 5.19741C3.52688 4.98235 3.58064 4.77805 3.64516 4.563C3.88172 3.63827 4.12903 2.77805 4.31183 2.03612C4.33333 1.98235 4.35484 1.9716 4.39785 1.93934C7.66667 1.93934 10.9462 1.95009 14.2258 1.92859C15.2258 1.98235 16.2473 2.1544 17.172 2.5845C17.2688 2.65977 17.2688 2.65977 17.5054 2.7888C17.7097 2.93934 17.9247 3.11138 18.1183 3.30493C18.2258 3.45547 18.3226 3.60601 18.4301 3.75655C18.4946 3.90708 18.5484 4.06837 18.6129 4.21891C18.6559 4.44472 18.7097 4.67052 18.7527 4.88558C18.7527 5.05762 18.7527 5.25117 18.7634 5.45547ZM24 6.30493C23.9355 6.7673 23.8602 7.19741 23.7312 7.63827C23.4624 8.19741 23.4624 8.19741 23.2903 8.50923C22.9785 8.98235 22.5806 9.3802 22.1613 9.75655C21.7527 10.0684 21.7527 10.0684 21.3118 10.3802C20.7849 10.692 20.2043 10.9393 19.6452 11.1974C19.4301 11.2619 19.172 11.3157 18.9785 11.434C18.9785 11.4877 18.9785 11.4877 18.9892 11.5092C19.7097 11.5845 20.3441 11.8318 20.9462 12.2297C21.2366 12.477 21.5161 12.7243 21.7634 13.0254C22.0538 13.4447 22.2796 13.8533 22.4516 14.3264C22.4946 14.52 22.5376 14.7028 22.5806 14.8963C22.6129 15.1974 22.6129 15.4985 22.6129 15.8103C22.5161 16.692 22.1935 17.477 21.7204 18.2297C21.4194 18.649 21.4194 18.649 21.1183 19.0361C20.6022 19.5737 19.9677 20.1867 19.2796 20.4985C18.7742 20.8748 18.0968 21.1114 17.5161 21.3479C17.1505 21.4555 16.7742 21.5737 16.4086 21.692C15.5806 21.8426 15.5806 21.8426 15.4946 21.8748C14.8602 21.9393 14.8602 21.9393 14.6882 21.9716C11.0108 22.1221 7.29032 22.0576 3.6129 22.0576C3.56989 21.9823 3.54839 21.8748 3.64516 21.8318C5.4086 21.7565 7.1828 21.6705 8.94624 21.6168C9.29032 21.6168 9.66667 21.6275 10 21.5737C11.1828 21.5307 12.3333 21.477 13.5054 21.2942C13.5806 21.2619 13.8925 21.1974 14.3548 21.0791C16.6452 20.3372 18.7312 18.8856 19.6989 16.606C19.7634 16.4017 19.7634 16.4017 19.828 16.2834C19.8817 16.0254 19.9355 15.7673 19.9892 15.5092C20 14.8748 20 14.8748 19.9892 14.6275C19.9032 14.0146 19.6774 13.4017 19.3226 12.8963C19.1613 12.7243 19.0108 12.5415 18.8495 12.3694C18.0968 11.7781 17.3548 11.3802 16.3871 11.3049C16.3871 11.2297 16.4086 11.2189 16.4731 11.1867C16.7097 11.1221 16.7097 11.1221 17.043 11.0039C18.5699 10.3372 19.9355 9.44472 20.7957 7.98235C20.8817 7.7888 20.9677 7.5845 21.0538 7.3802C21.2043 6.88558 21.2903 6.39095 21.3333 5.87483C21.3118 5.64902 21.3011 5.42321 21.2903 5.19741C21.2473 5.05762 21.2043 4.90708 21.1613 4.75655C20.9785 4.31569 20.7849 4.04687 20.4516 3.71353C19.9247 3.29418 19.3333 2.98235 18.6667 2.83181C18.6667 2.82106 18.6667 2.79956 18.6774 2.7888C19.0215 2.72429 19.4409 2.7888 19.7849 2.81031C19.9462 2.84257 19.9462 2.84257 20.5269 2.90708C20.7204 2.95009 20.914 2.9931 21.1183 3.03612C21.7419 3.20816 22.3656 3.42321 22.8925 3.79956C23.043 3.93934 23.2043 4.07913 23.3548 4.21891C23.4839 4.42321 23.6129 4.61676 23.7419 4.81031C23.8065 5.00386 23.871 5.18665 23.9355 5.3802C23.9462 5.65977 23.9892 5.98235 24 6.30493Z" fill="#F94F00"/>
</svg>
