<svg width="24" height="24" viewBox="0 0 24 24" fill="none" xmlns="http://www.w3.org/2000/svg">
<path d="M7.31773 16.7404L7.27361 16.7832C6.58072 17.4892 5.7789 17.8621 4.95295 17.8621C3.22797 17.8621 1.97663 16.5681 1.97663 14.7831C1.97663 13.0009 3.22797 11.7047 4.95295 11.7047C5.7789 11.7047 6.58072 12.0798 7.27361 12.7885L7.31773 12.8306L8.42705 11.4889L8.3974 11.4531C7.47493 10.3631 6.36768 9.83291 5.00673 9.83291C3.64232 9.83291 2.39305 10.2928 1.49402 11.1208C0.515014 12.0184 0 13.2843 0 14.7831C0 16.2819 0.515014 17.5505 1.49402 18.4482C2.39305 19.281 3.64232 19.7374 5.00673 19.7374C6.36768 19.7374 7.47493 19.2066 8.3974 18.1159L8.42705 18.0828L7.31773 16.7404Z" fill="#004685"/>
<path d="M9.54749 19.5544H11.5069V9.98775H9.54749V19.5544Z" fill="#004685"/>
<path d="M19.1834 17.4748C18.6602 17.7933 18.1741 17.9539 17.737 17.9539C17.1034 17.9539 16.8166 17.6189 16.8166 16.8743V11.7979H18.8139V9.99709H16.8166V7.02008L14.8965 8.04872V9.99709H13.2391V11.7979H14.8965V17.1976C14.8965 18.6682 15.7679 19.6748 17.0696 19.701C17.9528 19.7182 18.485 19.4548 18.8077 19.2618L18.8284 19.2487L19.2993 17.4038L19.1834 17.4748Z" fill="#004685"/>
<path d="M20.8053 19.5544H22.7675V9.98775H20.8053V19.5544Z" fill="#004685"/>
<path d="M23.9104 8.31086C22.1199 5.77509 19.147 4.26246 16.1224 4.26246C13.0985 4.26246 10.125 5.77509 8.33793 8.31086L8.24554 8.44116H10.5L10.5248 8.41427C12.0588 6.82994 14.0624 5.99295 16.1224 5.99295C18.1825 5.99295 20.1846 6.82994 21.7221 8.41427L21.7469 8.44116H24L23.9104 8.31086Z" fill="#EE1C25"/>
</svg>
