<svg width="24" height="24" viewBox="0 0 24 24" fill="none" xmlns="http://www.w3.org/2000/svg">
<g clip-path="url(#clip0_102_843)">
<path d="M7.19125 5.21314C12.6716 -0.226914 19.3201 -1.63879 21.9807 2.06915C24.6413 5.77709 22.303 13.2715 16.8226 18.7116C11.3423 24.1919 4.69379 25.6018 1.9929 21.8535C-0.625418 18.1073 1.71294 10.6512 7.19125 5.21314Z" fill="#F06321"/>
<path d="M10.8186 2.31081C10.2144 2.75391 9.61016 3.27757 9.00594 3.84353C4.21039 8.59678 2.19427 15.1244 4.57292 18.3893C7.0301 21.6521 12.9133 20.4437 17.8296 15.6481C20.4903 13.0701 22.2626 10.0872 22.9877 7.30777C23.1891 5.2534 22.9072 3.4387 21.9807 2.06912C19.886 -0.831168 15.3725 -0.591493 10.8186 2.31081Z" fill="#AE282E"/>
<path d="M17.7491 2.91509V3.03593C17.7089 3.72072 17.306 4.56664 16.5809 5.29171C15.4933 6.33903 14.0432 6.74185 13.4369 6.13964C12.7521 5.49513 13.157 4.08326 14.2446 2.95537C15.3725 1.86776 16.8226 1.50522 17.4268 2.14973C17.6282 2.35114 17.7491 2.59283 17.7491 2.91509ZM13.5598 21.4105C10.9797 23.344 8.32112 24.3128 5.74108 23.9099C6.82869 23.9502 7.71689 22.7398 8.44196 21.1285C9.16704 19.4769 9.56985 17.9462 9.93238 16.4941C10.456 14.198 10.4963 12.5867 10.2144 12.2242C9.77126 11.6582 8.8045 11.7811 7.67459 12.4256C7.11065 12.7479 6.38558 12.5465 7.23351 11.4991C8.11971 10.4518 11.5437 7.95232 12.7521 7.5495C14.1237 7.18697 15.6544 7.71063 15.1308 9.20106C14.7662 10.2887 10.013 22.6995 13.5598 21.4105Z" fill="white"/>
</g>
<defs>
<clipPath id="clip0_102_843">
<rect width="24" height="24" fill="white"/>
</clipPath>
</defs>
</svg>
