<svg width="24" height="24" viewBox="0 0 24 24" fill="none" xmlns="http://www.w3.org/2000/svg">
<path fill-rule="evenodd" clip-rule="evenodd" d="M0 12C0 6.30041 5.37234 1.6792 12.0002 1.6792C18.6281 1.6792 24 6.30041 24 12C24 17.6996 18.6277 22.3209 12.0002 22.3209C5.3728 22.3209 0 17.7003 0 12Z" fill="#003874"/>
<path fill-rule="evenodd" clip-rule="evenodd" d="M10.5431 4.99369L13.3311 4.07251L13.3449 19.1439L10.5333 20.0859L10.5431 4.99369Z" fill="#ED1C24"/>
<path fill-rule="evenodd" clip-rule="evenodd" d="M21.0247 13.039C20.7631 15.1949 19.5538 17.373 16.9132 17.3771C15.3715 17.3799 14.1673 16.3243 13.3333 15.0329V13.537C14.3769 14.0552 15.3523 14.6113 16.5358 14.6282C17.9936 14.6497 19.3119 14.0893 19.857 13.0388H21.0249L21.0247 13.039ZM12.1974 14.3927C10.9861 15.8529 9.81542 17.3444 7.62199 17.3444C4.52387 17.3444 3.05433 14.349 3.05433 11.8448C3.05433 9.43852 4.20277 6.59009 7.22102 6.59009C8.53012 6.59009 9.79024 7.39065 10.5414 8.23745L10.5391 10.2801C9.91154 9.85757 8.50586 9.4431 7.58812 9.42822C5.67413 9.39618 3.98672 10.2258 4.01602 12.1151C4.03593 13.4157 5.32466 14.2998 6.60675 14.2998C8.5704 14.2998 9.76003 12.506 10.7542 11.1445C11.1528 10.6247 11.5469 10.1015 11.9363 9.57493C13.0406 8.03193 14.3183 6.62327 16.5117 6.62327C19.0956 6.62327 20.5461 8.70593 20.9563 10.8499H19.7891C19.3199 10.1546 18.4175 9.72918 17.5286 9.72918C15.4986 9.72918 14.2856 11.5967 13.2703 12.9717L12.1947 14.3925" fill="white"/>
</svg>
