<svg width="24" height="24" viewBox="0 0 24 24" fill="none" xmlns="http://www.w3.org/2000/svg">
<g clip-path="url(#clip0_102_872)">
<path fill-rule="evenodd" clip-rule="evenodd" d="M20.7191 0.311279H3.27932C1.64951 0.311279 0.309547 1.6649 0.309547 3.31889V20.6823C0.309547 22.3355 1.64951 23.6895 3.27932 23.6895H20.7191C22.3587 23.6895 23.6897 22.3355 23.6897 20.6823V3.31928C23.6897 1.66529 22.3587 0.311279 20.7191 0.311279Z" fill="#9E173B"/>
<path d="M3.27956 0.621321C1.81204 0.621321 0.619917 1.83138 0.619917 3.31958V20.6826C0.619917 22.1704 1.81204 23.38 3.27956 23.38H20.7194C22.1861 23.38 23.3825 22.1704 23.3825 20.6822V3.31958C23.3825 1.83138 22.1857 0.621321 20.7194 0.621321H3.27956ZM20.7194 23.9987H3.27956C1.47071 23.9987 6.10352e-05 22.5105 6.10352e-05 20.6822V3.31958C6.10352e-05 1.49044 1.47071 0.00146484 3.27956 0.00146484H20.7194C22.5271 0.00146484 24.0001 1.49044 24.0001 3.31958V20.6826C24.0001 22.5105 22.5271 23.9987 20.7194 23.9987Z" fill="white"/>
<path fill-rule="evenodd" clip-rule="evenodd" d="M16.3838 3.36503H20.6408V20.6406H16.3838V15.7489C12.6338 17.1201 9.12729 17.241 5.90591 14.0848C4.57141 12.696 3.81892 10.8041 4.13373 7.50781C4.18756 7.00303 3.95155 4.6617 3.359 3.36035H7.14016C8.91157 6.17291 6.59013 9.76254 9.304 12.0539C13.0029 14.4483 16.2277 11.585 16.3838 8.99991V3.36503ZM12.1423 5.14775C14.1583 5.14775 15.7869 6.77873 15.7869 8.75571C15.7869 10.751 14.1583 12.366 12.1423 12.366C10.1267 12.366 8.48052 10.751 8.48052 8.75571C8.48052 6.77873 10.1267 5.14775 12.1423 5.14775Z" fill="#FAB90C"/>
</g>
<defs>
<clipPath id="clip0_102_872">
<rect width="24" height="24" fill="white"/>
</clipPath>
</defs>
</svg>
