<svg width="24" height="24" viewBox="0 0 24 24" fill="none" xmlns="http://www.w3.org/2000/svg">
<path d="M7.42374 5.79992V-6.41094e-06H2.85736V13.7173C2.85736 10.3405 4.69607 7.37723 7.42374 5.79992Z" fill="#21317D"/>
<path d="M12.569 4.59254V9.18004C14.8246 9.46087 16.5742 11.3828 16.5742 13.7118C16.5742 16.2443 14.5294 18.2904 11.9998 18.2904C9.47819 18.2904 7.42875 16.2443 7.42875 13.7118H7.42368V21.6342C8.77125 22.4108 10.3346 22.8652 11.9998 22.8652C17.0501 22.8652 21.1427 18.7718 21.1427 13.7173C21.1427 8.86162 17.3537 4.88436 12.569 4.59254Z" fill="#21317D"/>
<path d="M7.42374 5.79995C4.69608 7.37725 2.85736 10.3406 2.85736 13.7173V22.168V24H7.42374V22.8023V21.6338V13.7118H7.42881C7.42881 11.3828 9.17335 9.46133 11.4297 9.18007V4.59258C9.97657 4.67915 8.61126 5.10948 7.42374 5.79995Z" fill="#ED1C24"/>
</svg>
