<svg width="24" height="24" viewBox="0 0 24 24" fill="none" xmlns="http://www.w3.org/2000/svg">
<path d="M16.1788 23.6471L6.11436 17.0952C6.11436 17.0952 4.85225 16.3695 4.56332 15.0177C4.15747 13.1196 5.49526 11.4922 5.49526 11.4922L18.5571 19.9987C19.5647 20.6554 19.8396 21.9989 19.192 23.0122C18.5266 24.0532 17.1594 24.2829 16.1783 23.6471H16.1788Z" fill="#38D200"/>
<path d="M6.64605 10.0881C6.64605 10.0881 5.10445 9.15722 5.10445 7.0042C5.10445 4.85864 6.64539 3.9392 6.64539 3.9392L12.1475 0.338258C12.6317 0.0314318 13.2173 -0.0721259 13.7774 0.0500481C14.3374 0.172222 14.8267 0.510275 15.1391 0.990879C15.4516 1.47148 15.5619 2.05588 15.4462 2.61731C15.3305 3.17874 14.9982 3.67192 14.5212 3.98988L9.88392 7.00946L17.785 12.1553C17.785 12.1553 19.2072 12.9701 19.4874 14.3456C19.8785 16.2646 18.5576 17.8456 18.5576 17.8456L6.64605 10.0881ZM6.61687 23.9943C7.1333 23.9943 7.50098 23.8304 7.85967 23.5979L10.5456 21.8483L7.85967 20.0991C7.49769 19.8659 7.11772 19.7027 6.61687 19.7027C6.3325 19.6987 6.05016 19.7512 5.78626 19.8572C5.52235 19.9632 5.28216 20.1206 5.07962 20.3202C4.87709 20.5199 4.71626 20.7578 4.60649 21.0202C4.49672 21.2825 4.44019 21.5641 4.44019 21.8485C4.44019 22.1329 4.49672 22.4145 4.60649 22.6768C4.71626 22.9392 4.87709 23.1771 5.07962 23.3768C5.28216 23.5764 5.52235 23.7338 5.78626 23.8398C6.05016 23.9459 6.3325 23.9983 6.61687 23.9943Z" fill="#0473EA"/>
<path d="M17.0021 4.86377C16.4854 4.86377 16.1177 5.02765 15.759 5.25997L13.0729 7.00933L15.759 8.75869C16.121 8.99211 16.5012 9.15533 17.0021 9.15533C17.2838 9.15533 17.5629 9.09983 17.8232 8.99199C18.0835 8.88416 18.3201 8.7261 18.5193 8.52685C18.7186 8.32759 18.8767 8.09104 18.9845 7.83071C19.0923 7.57037 19.1478 7.29134 19.1478 7.00955C19.1478 6.72776 19.0923 6.44873 18.9845 6.1884C18.8767 5.92806 18.7186 5.69151 18.5193 5.49225C18.3201 5.293 18.0835 5.13494 17.8232 5.02711C17.5629 4.91927 17.2838 4.86377 17.0021 4.86377Z" fill="#38D200"/>
</svg>
