<svg width="24" height="24" viewBox="0 0 24 24" fill="none" xmlns="http://www.w3.org/2000/svg">
<g clip-path="url(#clip0_102_10)">
<path d="M17.1257 9.47442C13.4242 13.0999 10.2462 16.1767 10.0578 16.3202C9.62844 16.6382 8.99494 16.9459 8.4871 17.0843C7.84313 17.2587 7.27245 17.2638 5.51855 17.1099C4.64422 17.0382 3.89554 16.9817 3.84318 16.992C3.72277 17.0125 7.08398 20.197 7.5447 20.4995C7.96354 20.7764 8.58657 21.0021 9.14154 21.0841C10.2934 21.2533 11.597 20.8123 12.4294 19.9662C12.7226 19.6739 24.0314 3.03371 24 2.95166C23.9843 2.91064 23.9476 2.87987 23.911 2.87987C23.8795 2.87987 20.8272 5.84896 17.1257 9.47442Z" fill="#CB2448"/>
<path d="M2.96629 13.0514C2.54861 13.1451 0.199148 13.9055 0.0477385 13.994C-0.0827872 14.0774 0.0581806 14.1919 0.423652 14.3065C1.25902 14.5565 1.94819 15.0148 3.00284 16.0303L3.47273 16.4782L5.40451 16.6449C7.5608 16.8272 7.86362 16.8376 8.11423 16.7334C8.4797 16.5824 8.71987 16.0564 8.61544 15.6554C8.52669 15.3273 8.47448 15.27 7.8584 14.7804C6.72543 13.8847 5.96838 13.4212 5.16957 13.1556C4.51694 12.9368 3.67113 12.9004 2.96629 13.0514Z" fill="#CB2448"/>
</g>
<defs>
<clipPath id="clip0_102_10">
<rect width="24" height="24" fill="white"/>
</clipPath>
</defs>
</svg>
